# xmcd
#
# Track frame offsets:
#	150
#	19985
#	43659
#	61655
#	84640
#	103508
#
# Disc length: 1609 seconds
# Revision: 0
# Processed by: cddbd v1.5.2PL0 Copyright (c) Steve Scherf et al.
# Submitted via: dBpowerAMP V12.0
#
DISCID=43064706
DTITLE=Marc Steffen - Minneapolis
DYEAR=2015
DGENRE=Country
TTITLE0=Le square
TTITLE1=Les Dalton
TTITLE2=Les chariots
TTITLE3=Minneapolis
TTITLE4=Billy the kid
TTITLE5=L'envoyé
EXTD=
EXTT0=
EXTT1=
EXTT2=
EXTT3=
EXTT4=
EXTT5=
PLAYORDER=
